HIERARCHY
ROOT Reference
{
  OFFSET 0 0 0
  CHANNELS 6 Xposition Yposition Zposition Zrotation Xrotation Yrotation
  JOINT Hips
  {
    OFFSET 251.394 724.17 483.536
    CHANNELS 3 Zrotation Xrotation Yrotation
    JOINT RightUpLeg
    {
      OFFSET -0.450515 -23.4426 -1.37224
      CHANNELS 3 Zrotation Xrotation Yrotation
      JOINT RightLeg
      {
        OFFSET 112.821 0.0872427 -0.321027
        CHANNELS 3 Zrotation Xrotation Yrotation
        JOINT RightFoot
        {
          OFFSET 105.718 0.000193788 0.0213165
          CHANNELS 3 Zrotation Xrotation Yrotation
          JOINT RightToeBase
          {
            OFFSET 37.638 -0.000116272 0.00224792
            CHANNELS 3 Zrotation Xrotation Yrotation
            JOINT RightToeEnd
            {
              OFFSET 21.2112 0.114605 -0.000138184
              CHANNELS 3 Zrotation Xrotation Yrotation
              End Site
              {
                OFFSET 0 0 0
              }
            }
          }
        }
      }
    }
    JOINT LeftUpLeg
    {
      OFFSET -0.449508 23.4315 -1.37054
      CHANNELS 3 Zrotation Xrotation Yrotation
      JOINT LeftLeg
      {
        OFFSET 112.821 -0.0485242 -0.372458
        CHANNELS 3 Zrotation Xrotation Yrotation
        JOINT LeftFoot
        {
          OFFSET 105.716 0.00496094 -0.0229443
          CHANNELS 3 Zrotation Xrotation Yrotation
          JOINT LeftToeBase
          {
            OFFSET 37.639 0 0.00158905
            CHANNELS 3 Zrotation Xrotation Yrotation
            JOINT LeftToeEnd
            {
              OFFSET 21.2113 -0.125031 -0.00017438
              CHANNELS 3 Zrotation Xrotation Yrotation
              End Site
              {
                OFFSET 0 0 0
              }
            }
          }
        }
      }
    }
    JOINT Spine
    {
      OFFSET -5.01225 0.000463591 -9.60395
      CHANNELS 3 Zrotation Xrotation Yrotation
      JOINT Spine1
      {
        OFFSET 26.0222 -0.000271301 -0.000155029
        CHANNELS 3 Zrotation Xrotation Yrotation
        JOINT Spine2
        {
          OFFSET 27.173 -0.000155029 -0.000310058
          CHANNELS 3 Zrotation Xrotation Yrotation
          JOINT Spine3
          {
            OFFSET 36.3953 -0.000232544 7.75146e-005
            CHANNELS 3 Zrotation Xrotation Yrotation
            JOINT Neck
            {
              OFFSET 36.4331 0 -3.00261
              CHANNELS 3 Zrotation Xrotation Yrotation
              JOINT Head
              {
                OFFSET 23.0407 -0.000232544 -0.000310058
                CHANNELS 3 Zrotation Xrotation Yrotation
                End Site
                {
                  OFFSET 0 0 0
                }
              }
            }
            JOINT LeftShoulder
            {
              OFFSET 20.1317 6.74168 -12.6061
              CHANNELS 3 Zrotation Xrotation Yrotation
              JOINT LeftArm
              {
                OFFSET 34.2172 -5.81359e-005 7.75146e-005
                CHANNELS 3 Zrotation Xrotation Yrotation
                JOINT LeftForeArm
                {
                  OFFSET 65.4129 -0.0821605 0.0585235
                  CHANNELS 3 Zrotation Xrotation Yrotation
                  JOINT LeftHand
                  {
                    OFFSET 67.3883 0.0359667 0.0112396
                    CHANNELS 3 Zrotation Xrotation Yrotation
                    JOINT LeftHandThumb1
                    {
                      OFFSET 8.78386 2.85353 -6.05362
                      CHANNELS 3 Zrotation Xrotation Yrotation
                      JOINT LeftHandThumb2
                      {
                        OFFSET 8.25498 -0.000116272 -0.000174407
                        CHANNELS 3 Zrotation Xrotation Yrotation
                        JOINT LeftHandThumb3
                        {
                          OFFSET 7.24822 0.000310058 5.81358e-005
                          CHANNELS 3 Zrotation Xrotation Yrotation
                          JOINT LeftHandThumb4
                          {
                            OFFSET 7.0004 -3.87568e-005 -0.000310057
                            CHANNELS 3 Zrotation Xrotation Yrotation
                            End Site
                            {
                              OFFSET 0 0 0
                            }
                          }
                        }
                      }
                    }
                    JOINT LeftHandIndex1
                    {
                      OFFSET 24.0991 -1.01537 -5.40558
                      CHANNELS 3 Zrotation Xrotation Yrotation
                      JOINT LeftHandIndex2
                      {
                        OFFSET 7.26759 -0.000290679 -0.000465086
                        CHANNELS 3 Zrotation Xrotation Yrotation
                        JOINT LeftHandIndex3
                        {
                          OFFSET 7.13628 -1.93787e-005 0.000232543
                          CHANNELS 3 Zrotation Xrotation Yrotation
                          JOINT LeftHandIndex4
                          {
                            OFFSET 5.46699 9.68932e-005 -0.000387571
                            CHANNELS 3 Zrotation Xrotation Yrotation
                            End Site
                            {
                              OFFSET 0 0 0
                            }
                          }
                        }
                      }
                    }
                    JOINT LeftHandMiddle1
                    {
                      OFFSET 24.4604 -2.52837 0.918567
                      CHANNELS 3 Zrotation Xrotation Yrotation
                      JOINT LeftHandMiddle2
                      {
                        OFFSET 7.41627 -5.81359e-005 0.000116271
                        CHANNELS 3 Zrotation Xrotation Yrotation
                        JOINT LeftHandMiddle3
                        {
                          OFFSET 8.76829 3.87573e-005 -7.75142e-005
                          CHANNELS 3 Zrotation Xrotation Yrotation
                          JOINT LeftHandMiddle4
                          {
                            OFFSET 6.07588 -0.00013565 -5.81356e-005
                            CHANNELS 3 Zrotation Xrotation Yrotation
                            End Site
                            {
                              OFFSET 0 0 0
                            }
                          }
                        }
                      }
                    }
                    JOINT LeftHandRing1
                    {
                      OFFSET 22.465 -1.97467 6.3466
                      CHANNELS 3 Zrotation Xrotation Yrotation
                      JOINT LeftHandRing2
                      {
                        OFFSET 7.36666 -0.000232544 0.000387571
                        CHANNELS 3 Zrotation Xrotation Yrotation
                        JOINT LeftHandRing3
                        {
                          OFFSET 8.07624 -0.000465087 -0.000203475
                          CHANNELS 3 Zrotation Xrotation Yrotation
                          JOINT LeftHandRing4
                          {
                            OFFSET 6.04433 0.00013565 3.87571e-005
                            CHANNELS 3 Zrotation Xrotation Yrotation
                            End Site
                            {
                              OFFSET 0 0 0
                            }
                          }
                        }
                      }
                    }
                    JOINT LeftHandPinky1
                    {
                      OFFSET 19.5278 0.352933 10.4295
                      CHANNELS 3 Zrotation Xrotation Yrotation
                      JOINT LeftHandPinky2
                      {
                        OFFSET 6.16525 5.8136e-005 -0.000251921
                        CHANNELS 3 Zrotation Xrotation Yrotation
                        JOINT LeftHandPinky3
                        {
                          OFFSET 6.14448 -0.000329434 -0.00510625
                          CHANNELS 3 Zrotation Xrotation Yrotation
                          JOINT LeftHandPinky4
                          {
                            OFFSET 4.98555 0.000116272 0.000116271
                            CHANNELS 3 Zrotation Xrotation Yrotation
                            End Site
                            {
                              OFFSET 0 0 0
                            }
                          }
                        }
                      }
                    }
                  }
                }
              }
            }
            JOINT RightShoulder
            {
              OFFSET 20.1309 -6.74152 -12.6063
              CHANNELS 3 Zrotation Xrotation Yrotation
              JOINT RightArm
              {
                OFFSET 34.2171 7.75146e-005 7.75146e-005
                CHANNELS 3 Zrotation Xrotation Yrotation
                JOINT RightForeArm
                {
                  OFFSET 65.4492 0.242543 -0.176501
                  CHANNELS 3 Zrotation Xrotation Yrotation
                  JOINT RightHand
                  {
                    OFFSET 67.3888 -0.0867388 0.0597442
                    CHANNELS 3 Zrotation Xrotation Yrotation
                    JOINT RightHandThumb1
                    {
                      OFFSET 8.78307 -2.85357 -6.05302
                      CHANNELS 3 Zrotation Xrotation Yrotation
                      JOINT RightHandThumb2
                      {
                        OFFSET 8.25493 -7.75145e-005 0
                        CHANNELS 3 Zrotation Xrotation Yrotation
                        JOINT RightHandThumb3
                        {
                          OFFSET 7.24797 -0.000174408 0.000155029
                          CHANNELS 3 Zrotation Xrotation Yrotation
                          JOINT RightHandThumb4
                          {
                            OFFSET 7.00062 0 0
                            CHANNELS 3 Zrotation Xrotation Yrotation
                            End Site
                            {
                              OFFSET 0 0 0
                            }
                          }
                        }
                      }
                    }
                    JOINT RightHandIndex1
                    {
                      OFFSET 24.0991 1.01525 -5.40578
                      CHANNELS 3 Zrotation Xrotation Yrotation
                      JOINT RightHandIndex2
                      {
                        OFFSET 7.26773 7.75144e-005 0.000232543
                        CHANNELS 3 Zrotation Xrotation Yrotation
                        JOINT RightHandIndex3
                        {
                          OFFSET 7.13572 -0.000310058 3.87571e-005
                          CHANNELS 3 Zrotation Xrotation Yrotation
                          JOINT RightHandIndex4
                          {
                            OFFSET 5.46717 0 3.87572e-005
                            CHANNELS 3 Zrotation Xrotation Yrotation
                            End Site
                            {
                              OFFSET 0 0 0
                            }
                          }
                        }
                      }
                    }
                    JOINT RightHandMiddle1
                    {
                      OFFSET 24.4603 2.52899 0.918547
                      CHANNELS 3 Zrotation Xrotation Yrotation
                      JOINT RightHandMiddle2
                      {
                        OFFSET 7.41641 -0.000116272 -0.000116272
                        CHANNELS 3 Zrotation Xrotation Yrotation
                        JOINT RightHandMiddle3
                        {
                          OFFSET 8.76765 -3.87577e-005 0.000232543
                          CHANNELS 3 Zrotation Xrotation Yrotation
                          JOINT RightHandMiddle4
                          {
                            OFFSET 6.07609 -0.000193787 -0.000116271
                            CHANNELS 3 Zrotation Xrotation Yrotation
                            End Site
                            {
                              OFFSET 0 0 0
                            }
                          }
                        }
                      }
                    }
                    JOINT RightHandRing1
                    {
                      OFFSET 22.465 1.97571 6.34696
                      CHANNELS 3 Zrotation Xrotation Yrotation
                      JOINT RightHandRing2
                      {
                        OFFSET 7.36684 0.000193786 0.000155029
                        CHANNELS 3 Zrotation Xrotation Yrotation
                        JOINT RightHandRing3
                        {
                          OFFSET 8.07614 -0.000271301 0
                          CHANNELS 3 Zrotation Xrotation Yrotation
                          JOINT RightHandRing4
                          {
                            OFFSET 6.04468 0.000232543 0
                            CHANNELS 3 Zrotation Xrotation Yrotation
                            End Site
                            {
                              OFFSET 0 0 0
                            }
                          }
                        }
                      }
                    }
                    JOINT RightHandPinky1
                    {
                      OFFSET 19.5277 -0.352346 10.4296
                      CHANNELS 3 Zrotation Xrotation Yrotation
                      JOINT RightHandPinky2
                      {
                        OFFSET 6.16508 0 0.000232543
                        CHANNELS 3 Zrotation Xrotation Yrotation
                        JOINT RightHandPinky3
                        {
                          OFFSET 6.14396 -0.000155048 -0.0048834
                          CHANNELS 3 Zrotation Xrotation Yrotation
                          JOINT RightHandPinky4
                          {
                            OFFSET 4.98577 -7.75146e-005 -7.75143e-005
                            CHANNELS 3 Zrotation Xrotation Yrotation
                            End Site
                            {
                              OFFSET 0 0 0
                            }
                          }
                        }
                      }
                    }
                  }
                }
              }
            }
          }
        }
      }
    }
  }
}
MOTION
Frames:	4
Frame Time:	0.0333333
0 0 0 -90.9133 -3.69247 -92.7473 55.8862 -1.96226 -5.36159 -129.741 -29.5091 -56.746 -0.91441 -0.140065 -81.3291 1.73657 2.19292 21.6452 -0.55071 0.185859 49.4867 -4.03033e-006 1.06255e-006 -86.4974 144.542 36.64 -57.9077 0.580873 -0.0984664 -105.53 8.34081 14.656 16.2635 0.59418 -0.0149853 67.2439 7.20812e-007 5.39328e-007 -86.4974 -3.19338e-014 -2.08054e-014 129.861 2.04008 -1.4841 -15.8736 1.72377 -0.481626 -5.27434 -1.47732 -2.98747 -41.593 6.77234 -2.14299 6.65716 5.13959 -3.28129 39.1149 64.5979 23.877 -14.612 33.9425 -53.4167 81.079 23.7344 -58.9828 127.104 -93.8319 68.7362 68.719 -172.685 -14.3042 136.231 0.000878352 -0.00110339 25.6315 0.000667664 -0.000982447 26.9752 0.000243324 -0.00131012 -0.00013592 -159.9 82.5756 165.108 -0.000431077 -0.00034989 5.68737 0.000932908 -0.000761956 2.27944 -0.000546311 -0.000515677 -0.000463602 19.6177 80.5374 -17.7358 3.99951e-005 -0.000267595 8.38499 0.00069634 -0.000679806 -2.80956 -0.000519678 -0.000295405 0.000115044 66.5706 73.3973 -63.0543 -2.76693e-006 -0.000997219 7.9937 0.00103568 -0.000347212 -3.05049 -0.000625652 -0.000650154 0.000716526 78.4562 65.9066 -72.0354 0.000796511 -0.00122738 2.75174 -0.000355273 -0.000245038 0.00159805 -5.44812e-005 -2.77473e-005 -0.000410238 -71.7936 -20.7843 -20.7301 -11.4532 32.4385 66.0793 -65.008 48.6826 169.676 129.109 -49.2286 104.259 172.689 14.0436 152.932 -0.000204144 0.000421221 43.1696 1.07779e-005 -0.000148771 51.083 1.62618e-011 -6.10354e-005 -180 159.892 -82.5791 164.439 -0.000196491 -9.05266e-005 5.69029 0.000149562 -7.2545e-006 2.28225 -0.000106812 -3.05177e-005 -180 -19.62 -80.5379 -17.738 -4.51648e-005 7.25677e-006 8.38506 1.89603e-005 8.92904e-007 -2.80951 -3.05176e-005 3.05177e-005 -180 -64.5271 -74.1952 -61.0922 -3.47622e-006 5.82738e-006 7.99495 1.8537e-007 -1.77441e-005 -3.0505 1.2184e-011 -4.57765e-005 -180 -78.4557 -65.9062 -77.0591 9.91868e-006 9.59884e-006 3.0298 1.67157e-006 1.97735e-005 0.847251 -4.0707e-012 1.52588e-005 -180 
0 0 0 -90.9133 -3.69247 -92.7473 55.7755 -1.94818 -5.17559 -128.377 -29.9166 -54.4481 -0.775029 -0.102081 -82.5356 1.36858 1.60231 21.6173 -0.551758 0.182721 49.8127 -3.23529e-006 1.21578e-006 -86.4974 142.874 37.6192 -55.0759 0.491897 -0.0777446 -104.874 8.14835 14.4111 16.5804 0.594019 -0.0203641 66.7253 6.8677e-007 -3.69209e-006 -86.4974 -1.24011e-014 -4.49921e-015 129.882 2.04062 -1.54531 -16.0773 1.55566 -0.432168 -5.31948 -1.49585 -2.96276 -42.0688 6.34012 -2.01874 7.47542 4.29639 -3.08832 39.5795 64.9752 23.9322 -14.3061 33.521 -53.1683 80.8955 23.2991 -58.9467 126.715 -93.4331 68.7 68.3894 -172.685 -14.3041 136.334 0.000856539 -0.00110829 24.604 0.00064028 -0.000991619 25.613 0.000243324 -0.00131253 -0.00013592 -159.9 82.5756 165.108 -0.000431091 -0.000352322 5.68737 0.000932904 -0.000767879 2.27944 -0.00054631 -0.000519859 -0.000463602 19.6177 80.5374 -17.7358 4.11831e-005 -0.000269867 8.38499 0.000696346 -0.000683209 -2.80956 -0.000519677 -0.00029882 0.000115044 66.5706 73.3973 -63.0543 -2.78605e-006 -0.00099969 7.9937 0.00103569 -0.000351372 -3.05049 -0.000625652 -0.000652568 0.000716527 78.4562 65.9066 -72.0354 0.0007965 -0.00122983 2.75174 -0.000355274 -0.000248453 0.00159805 -5.44879e-005 -3.41363e-005 -0.000410238 -71.771 -20.8087 -20.5555 -10.9419 32.1647 66.0918 -65.0289 48.4892 169.629 129.568 -49.0081 104.783 172.69 14.0404 153.591 -0.000213265 0.000412882 43.9043 3.55481e-005 -0.00011359 52.1172 1.62478e-011 -6.10354e-005 -180 159.892 -82.5791 164.405 -0.000196416 -0.000192593 5.69029 0.000148442 -8.27063e-006 2.28243 -0.000106812 -3.05177e-005 -180 -19.62 -80.5379 -17.738 -4.38403e-005 5.23685e-006 8.38507 1.87579e-005 8.31566e-007 -2.80951 -3.05176e-005 3.05177e-005 -180 -64.5271 -74.1952 -61.0922 -8.67926e-006 2.79106e-006 7.99496 2.63385e-006 -1.79164e-005 -3.0505 1.21586e-011 -4.57765e-005 -180 -78.4558 -65.9062 -77.0591 9.54895e-006 7.1921e-006 3.02981 1.40153e-006 1.97774e-005 0.847251 -4.0707e-012 1.52588e-005 -180 
0 0 0 -90.9133 -3.69247 -92.7473 55.4959 -1.90461 -4.25902 -126.977 -29.6516 -52.0332 -0.636254 -0.0771667 -83.1259 1.1065 1.65164 21.6334 -0.55566 0.17048 51.0795 -1.80184e-006 -3.79604e-006 -86.4974 141.366 37.8405 -51.7998 0.401276 -0.0541144 -103.667 8.09323 13.7432 16.5553 0.594121 -0.0171308 67.0371 6.53457e-007 -9.02922e-006 -86.4974 3.51458e-006 -9.74188e-006 129.676 2.05037 -1.88813 -16.7804 1.03393 -0.272816 -5.21105 -1.44859 -2.7477 -43.074 5.90369 -1.93157 9.14898 3.68435 -3.07792 39.7292 65.6121 24.0938 -13.3692 33.2725 -53.244 80.8825 22.467 -58.5122 125.775 -92.91 68.7533 68.0685 -172.685 -14.3042 136.417 0.000845316 -0.00111508 23.8776 0.000627347 -0.00100483 24.6452 0.000243325 -0.00131594 -0.00013592 -159.9 82.5756 165.108 -0.000431095 -0.000355771 5.68737 0.000932901 -0.000772077 2.27944 -0.00054631 -0.000524042 -0.000463602 19.6177 80.5374 -17.7358 3.85911e-005 -0.000272713 8.38499 0.000696351 -0.000683192 -2.80956 -0.000519677 -0.00029882 0.000115044 66.5706 73.3973 -63.0543 -2.87818e-006 -0.0010022 7.9937 0.00103569 -0.000355525 -3.05049 -0.000625653 -0.000654984 0.000716527 78.4562 65.9066 -72.0354 0.000796495 -0.00122987 2.75174 -0.000355273 -0.000250868 0.00159805 -5.44746e-005 -4.05254e-005 -0.000410238 -71.5491 -20.8818 -20.046 -10.6867 32.0382 66.112 -64.5142 48.1184 168.773 130.102 -48.8654 105.387 172.69 14.0383 154.121 -0.000213355 0.000413394 44.5645 2.65798e-005 -0.00012152 53.0525 2.03115e-011 -7.62942e-005 -180 159.892 -82.5791 164.37 -0.000197738 -9.04381e-005 5.6905 0.000149066 -7.18024e-006 2.28261 -0.000106812 -4.57765e-005 -180 -19.62 -80.5379 -17.738 -4.37609e-005 6.9309e-007 8.38507 1.87051e-005 -1.47446e-006 -2.80951 -3.05176e-005 1.52588e-005 -180 -64.5271 -74.1952 -61.0922 -6.6014e-006 5.17274e-007 7.99496 2.15118e-006 -2.02496e-005 -3.0505 1.62477e-011 -6.10354e-005 -180 -78.4558 -65.9062 -77.0591 9.56872e-006 1.76752e-006 3.02981 1.44973e-006 1.6355e-005 0.847251 7.01671e-015 7.01671e-015 -180 
0 0 0 -90.9133 -3.69247 -92.7473 55.479 -1.92405 -4.14736 -126.17 -30.1843 -50.2443 -0.502222 -0.0587673 -83.3711 1.21171 1.75921 22.132 -0.555305 0.171631 50.9607 -1.22324e-006 -6.76763e-006 -86.4974 140.318 38.5288 -49.7888 0.310368 -0.031283 -102.014 7.65533 13.084 17.0766 0.593819 -0.025519 66.2281 4.82218e-007 -1.74899e-005 -86.4974 -5.15446e-014 -3.70179e-014 129.738 1.98488 -1.8713 -16.8133 0.936877 -0.245574 -5.12882 -1.44647 -2.69028 -43.5401 5.40592 -1.82941 9.68306 2.96407 -2.8343 40.3723 65.9966 24.1073 -13.502 32.3651 -52.9518 80.1345 22.8375 -58.8406 126.243 -92.6652 68.6929 67.7827 -172.685 -14.3044 136.84 0.000836323 -0.00111551 23.5113 0.0006145 -0.00100206 24.1555 0.000243327 -0.00132319 -0.00013592 -159.9 82.5756 165.108 -0.000431099 -0.000364156 5.68737 0.0009329 -0.000786972 2.27944 -0.00054631 -0.000537914 -0.000463602 19.6177 80.5374 -17.7358 3.81653e-005 -0.000280045 8.38499 0.000696355 -0.000693429 -2.80956 -0.000519678 -0.000309065 0.000115044 66.5706 73.3973 -63.0543 -2.79831e-006 -0.00100986 7.9937 0.0010357 -0.000365467 -3.05049 -0.000625653 -0.000665229 0.000716527 78.4561 65.9066 -72.0354 0.000796495 -0.00122989 2.75174 -0.000355273 -0.000254283 0.00159805 -5.44747e-005 -5.23556e-005 -0.000410238 -71.4586 -20.8582 -20.1084 -9.99381 31.7961 65.9203 -64.8738 48.0171 169.231 130.546 -48.7259 105.684 172.69 14.0369 154.811 -0.0002103 0.000409597 45.3913 2.06271e-005 -0.000128698 54.2067 2.43752e-011 -9.15531e-005 -180 159.892 -82.5791 164.336 -0.0001979 -0.000194071 5.6905 0.00015145 -7.42631e-006 2.28279 -0.000106812 -6.10353e-005 -180 -19.62 -80.5379 -17.738 -4.56485e-005 -6.36047e-006 8.38507 1.91911e-005 -4.0702e-006 -2.80951 -3.05176e-005 3.24611e-014 -180 -64.5271 -74.1952 -61.0922 1.22146e-006 -1.59673e-006 7.99496 -1.89113e-006 -2.25275e-005 -3.0505 2.03114e-011 -7.62942e-005 -180 -78.4557 -65.9062 -77.0591 1.00456e-005 -5.41233e-006 3.02981 1.34113e-006 1.39504e-005 0.847252 4.05667e-012 -1.52588e-005 -180 
